<svg width="40" height="40" viewBox="0 0 40 40" fill="none" xmlns="http://www.w3.org/2000/svg">
<path d="M7.27273 12.7273C9.20158 12.7273 11.0514 13.4935 12.4153 14.8574C13.7792 16.2213 14.5455 18.0712 14.5455 20C14.5455 21.9288 13.7792 23.7787 12.4153 25.1426C11.0514 26.5065 9.20158 27.2727 7.27273 27.2727C5.34388 27.2727 3.49403 26.5065 2.13013 25.1426C0.766232 23.7787 0 21.9288 0 20C0 18.0712 0.766232 16.2213 2.13013 14.8574C3.49403 13.4935 5.34388 12.7273 7.27273 12.7273ZM20 0C21.9288 0 23.7787 0.766232 25.1426 2.13013C26.5065 3.49403 27.2727 5.34388 27.2727 7.27273C27.2727 9.20158 26.5065 11.0514 25.1426 12.4153C23.7787 13.7792 21.9288 14.5455 20 14.5455C18.0712 14.5455 16.2213 13.7792 14.8574 12.4153C13.4935 11.0514 12.7273 9.20158 12.7273 7.27273C12.7273 5.34388 13.4935 3.49403 14.8574 2.13013C16.2213 0.766232 18.0712 0 20 0ZM20 25.4545C21.9288 25.4545 23.7787 26.2208 25.1426 27.5847C26.5065 28.9486 27.2727 30.7984 27.2727 32.7273C27.2727 34.6561 26.5065 36.506 25.1426 37.8699C23.7787 39.2338 21.9288 40 20 40C18.0712 40 16.2213 39.2338 14.8574 37.8699C13.4935 36.506 12.7273 34.6561 12.7273 32.7273C12.7273 30.7984 13.4935 28.9486 14.8574 27.5847C16.2213 26.2208 18.0712 25.4545 20 25.4545ZM32.7273 12.7273C34.6561 12.7273 36.506 13.4935 37.8699 14.8574C39.2338 16.2213 40 18.0712 40 20C40 21.9288 39.2338 23.7787 37.8699 25.1426C36.506 26.5065 34.6561 27.2727 32.7273 27.2727C30.7984 27.2727 28.9486 26.5065 27.5847 25.1426C26.2208 23.7787 25.4545 21.9288 25.4545 20C25.4545 18.0712 26.2208 16.2213 27.5847 14.8574C28.9486 13.4935 30.7984 12.7273 32.7273 12.7273Z" fill="white" fill-opacity="0.5"/>
</svg>
