<svg width="40" height="40" viewBox="0 0 40 40" fill="none" xmlns="http://www.w3.org/2000/svg">
<path d="M9.09091 0H30.9091C32.1029 0 33.2851 0.517315 34.388 1.52241C35.491 2.5275 36.4932 4.00069 37.3373 5.85786C38.1815 7.71504 38.8511 9.91982 39.308 12.3463C39.7649 14.7728 40 17.3736 40 20C40 22.6264 39.7649 25.2272 39.308 27.6537C38.8511 30.0802 38.1815 32.285 37.3373 34.1421C36.4932 35.9993 35.491 37.4725 34.388 38.4776C33.2851 39.4827 32.1029 40 30.9091 40C27.9273 40 25.2909 36.84 23.6364 32H16.3636C14.7091 36.84 12.0727 40 9.09091 40C7.89707 40 6.71493 39.4827 5.61197 38.4776C4.50901 37.4725 3.50683 35.9993 2.66267 34.1421C0.957789 30.3914 0 25.3043 0 20C0 14.6957 0.957789 9.60859 2.66267 5.85786C4.36754 2.10714 6.67985 0 9.09091 0ZM34.0909 10C33.4881 10 32.9101 10.5268 32.4838 11.4645C32.0576 12.4021 31.8182 13.6739 31.8182 15C31.8182 15.6566 31.877 16.3068 31.9912 16.9134C32.1054 17.52 32.2728 18.0712 32.4838 18.5355C32.6949 18.9998 32.9454 19.3681 33.2212 19.6194C33.4969 19.8707 33.7924 20 34.0909 20C34.3894 20 34.6849 19.8707 34.9606 19.6194C35.2364 19.3681 35.4869 18.9998 35.698 18.5355C35.909 18.0712 36.0764 17.52 36.1906 16.9134C36.3049 16.3068 36.3636 15.6566 36.3636 15C36.3636 13.6739 36.1242 12.4021 35.698 11.4645C35.2718 10.5268 34.6937 10 34.0909 10ZM29.5455 20C28.9427 20 28.3646 20.5268 27.9384 21.4645C27.5122 22.4021 27.2727 23.6739 27.2727 25C27.2727 26.3261 27.5122 27.5979 27.9384 28.5355C28.3646 29.4732 28.9427 30 29.5455 30C30.1482 30 30.7263 29.4732 31.1525 28.5355C31.5787 27.5979 31.8182 26.3261 31.8182 25C31.8182 23.6739 31.5787 22.4021 31.1525 21.4645C30.7263 20.5268 30.1482 20 29.5455 20ZM7.27273 8V16H3.63636V24H7.27273V32H10.9091V24H14.5455V16H10.9091V8H7.27273Z" fill="white" fill-opacity="0.5"/>
</svg>
