<svg width="40" height="40" viewBox="0 0 40 40" fill="none" xmlns="http://www.w3.org/2000/svg">
<path d="M13.5099 30.1679C9.51602 30.1679 8.01831 36.9747 4.02441 40C0.0305153 40 -2.96491 30.9242 5.02289 5.20956H5.52212L6.40078 2.6986C6.40078 2.6986 12.0122 -2.35357 14.6681 1.36749H25.3319C27.9878 -2.35357 33.5992 2.6986 33.5992 2.6986L34.4779 5.20956H34.9771C42.9649 30.9242 39.9695 40 35.9756 40C31.9817 36.9747 30.484 30.1679 26.4901 30.1679H13.5099ZM20 3.69694C19.4704 3.69694 18.9624 4.01567 18.5879 4.58301C18.2134 5.15036 18.0031 5.91984 18.0031 6.72219C18.0031 7.52454 18.2134 8.29403 18.5879 8.86137C18.9624 9.42872 19.4704 9.74745 20 9.74745C20.5296 9.74745 21.0376 9.42872 21.4121 8.86137C21.7866 8.29403 21.9969 7.52454 21.9969 6.72219C21.9969 5.91984 21.7866 5.15036 21.4121 4.58301C21.0376 4.01567 20.5296 3.69694 20 3.69694Z" fill="#FCFCFC" fill-opacity="0.5"/>
</svg>
