<svg width="20" height="20" viewBox="0 0 20 20" fill="none" xmlns="http://www.w3.org/2000/svg">
<path d="M19.5067 9.75335C19.5067 5.49438 16.8083 1.88563 13.0045 0.552673V18.954C16.8083 17.6211 19.5067 14.0123 19.5067 9.75335" fill="#ED4C5C"/>
<path d="M0 9.75335C0 14.0123 2.73094 17.6211 6.50224 18.954V0.552673C2.73094 1.88563 0 5.49438 0 9.75335V9.75335Z" fill="#75A843"/>
<path d="M13.0045 0.552691C11.9967 0.195067 10.8913 0 9.75338 0C8.61549 0 7.51011 0.195067 6.50226 0.552691V18.954C7.51011 19.3117 8.61549 19.5067 9.75338 19.5067C10.8913 19.5067 11.9967 19.3117 13.0045 18.954V0.552691Z" fill="white"/>
<path d="M12.5819 9.65582C12.5493 9.55829 12.5168 9.68833 12.5168 9.72084C12.5168 9.62331 12.4843 9.55829 12.4193 9.46075C12.3218 9.55829 12.2893 9.68833 12.2893 9.81838C12.2567 9.72084 12.2242 9.62331 12.1267 9.5908C12.1917 9.68833 12.1592 9.75335 12.1592 9.85089C12.1592 9.98093 12.2567 10.0785 12.2567 10.2085C12.2567 10.3386 12.1917 10.4361 12.0942 10.5336V10.4361C11.7691 10.5661 11.8341 10.7287 11.8341 11.0213C11.8341 11.3139 11.6715 11.2489 11.4765 11.4114C11.509 11.3464 11.509 11.2489 11.4765 11.1838C11.4765 11.3789 11.2164 11.3789 11.1839 11.5415C11.1514 11.6065 11.1839 11.7365 11.0863 11.7691C11.0213 11.8016 10.9238 11.8666 10.9238 11.9316C10.8588 11.8991 10.7937 11.8991 10.6962 11.8991C10.7287 11.8666 10.7612 11.8666 10.7937 11.8341C10.4686 11.6715 10.3711 12.0291 10.0785 12.0617C9.98096 12.0617 9.75338 11.9316 9.75338 12.0617C10.046 12.0617 10.176 12.3217 10.4036 12.3217C10.5987 12.3217 10.7612 12.1592 10.9563 12.1592C10.9238 12.1592 10.8262 12.0942 10.7287 12.0942C10.8913 11.9966 10.9888 11.8016 11.1839 11.8016C11.509 11.8016 11.6715 11.7365 11.7691 11.4114C11.7366 11.4114 11.7041 11.4114 11.6715 11.4439C11.6715 11.3139 11.8016 11.1513 11.9316 11.0863C12.2567 11.0213 12.2242 10.7612 12.4193 10.5336C12.3543 10.5336 12.2893 10.5661 12.2242 10.6312C12.2242 10.4361 12.1917 10.241 12.3543 10.111C12.6794 9.94842 12.6469 9.8834 12.5819 9.65582M6.9249 9.65582C6.85988 9.91591 6.82737 9.98093 7.08746 10.1435C7.28253 10.2735 7.2175 10.4686 7.2175 10.6637C7.15248 10.5986 7.11997 10.5661 7.02244 10.5661C7.2175 10.7612 7.18499 11.0538 7.5101 11.1188C7.60764 11.1838 7.77019 11.3464 7.77019 11.4764C7.73768 11.4764 7.70517 11.4439 7.67266 11.4439C7.77019 11.7691 7.93275 11.8341 8.25786 11.8341C8.45293 11.8341 8.55046 12.0291 8.71302 12.1267C8.61549 12.1267 8.51795 12.1592 8.48544 12.1917C8.68051 12.1917 8.84306 12.3868 9.03813 12.3543C9.26571 12.3543 9.42827 12.0942 9.68836 12.0942C9.68836 11.9641 9.46078 12.0942 9.36324 12.0942C9.10315 12.0291 9.00562 11.704 8.648 11.8341C8.68051 11.8666 8.71302 11.8991 8.74553 11.8991C8.68051 11.8991 8.58297 11.8666 8.51795 11.9316C8.48544 11.8666 8.42042 11.8016 8.3554 11.7691C8.29037 11.704 8.29037 11.6065 8.25786 11.5415C8.19284 11.3789 7.96526 11.3464 7.96526 11.1838C7.93275 11.2489 7.93275 11.3464 7.96526 11.4114C7.77019 11.2489 7.60764 11.3139 7.60764 11.0213C7.60764 10.7612 7.67266 10.5661 7.34755 10.4361V10.5336C7.25002 10.4361 7.18499 10.3711 7.18499 10.2085C7.18499 10.0785 7.31504 9.98093 7.28253 9.85089C7.28253 9.75335 7.25001 9.68833 7.31504 9.5908C7.2175 9.62331 7.18499 9.72084 7.15248 9.81838C7.15248 9.68833 7.11997 9.55829 7.02244 9.46075C6.98993 9.52578 6.95741 9.62331 6.9249 9.72084C6.95741 9.65582 6.9249 9.55829 6.9249 9.65582" fill="#75A843"/>
<path d="M10.6312 11.6065C10.5662 11.6065 10.5337 11.5415 10.5011 11.5089C10.5011 11.4439 10.7612 11.3789 10.7937 11.3789V11.3139C10.3711 11.4439 9.10317 11.5415 8.84308 11.0863C8.71303 11.2814 8.48545 11.1513 8.25787 10.9888C8.29038 11.0538 8.42043 11.3789 8.42043 11.3464C8.48545 11.3789 8.9081 11.4764 8.9081 11.574L8.81056 11.6715C9.4933 11.8991 9.91595 11.9641 10.6312 11.6065Z" fill="#428BC1"/>
<path d="M10.2085 11.6065C10.241 11.574 10.241 11.5415 10.241 11.4765L10.2085 11.3789C10.2736 11.3139 10.2085 11.1514 10.111 11.1839C10.046 11.2164 10.0785 11.2164 10.0135 11.1839C9.98095 11.1839 9.98095 11.1514 9.94844 11.1514H9.36324C9.29822 11.1514 9.29822 11.1188 9.23319 11.1188C9.16817 11.0863 9.13566 11.1514 9.10315 11.1839C9.10315 11.2489 9.13566 11.2489 9.13566 11.2814C9.13566 11.3139 9.10315 11.3464 9.10315 11.4114C9.10315 11.4765 9.13566 11.509 9.16817 11.5415C9.03813 11.639 9.16817 11.8016 9.29822 11.704C9.33073 11.7691 9.42826 11.7691 9.52579 11.7691H9.88342C9.94844 11.7691 10.0785 11.8016 10.111 11.704C10.2085 11.8666 10.3386 11.6715 10.2085 11.6065Z" fill="#ED4C5C"/>
<path d="M11.2489 10.7612C10.9888 10.4361 10.8587 10.9237 10.5661 10.8912C10.6312 10.5011 10.046 10.6311 9.88341 10.7287C9.91592 10.6962 9.94843 10.6311 9.98094 10.5661C9.8509 10.5661 9.68834 10.6311 9.59081 10.5336C9.39574 10.4036 9.13565 10.3385 8.97309 10.5661C8.84305 10.371 8.48543 10.176 8.29036 10.371C8.29036 10.176 8.09529 9.88337 7.86771 9.91589C7.60762 9.9484 7.70516 10.2735 7.8352 10.4036C7.93273 10.5011 8.06278 10.5336 8.19282 10.5336C8.19282 10.5986 8.22534 10.6311 8.25785 10.6636C8.4204 10.7937 8.74551 10.8262 8.90807 10.6962C8.90807 11.0213 9.55829 11.0213 9.72085 10.8587C9.65583 11.0213 9.59081 11.3464 9.81838 11.3464C10.0135 11.3464 9.94843 11.1513 10.111 11.0863C10.241 11.0213 10.4036 10.9888 10.5336 11.0538C10.7612 11.1838 11.4765 11.1513 11.2489 10.7612" fill="#428BC1"/>
<path d="M8.58299 9.94841C8.55048 9.88339 8.48546 9.81837 8.48546 9.81837C8.35541 9.85088 8.35541 9.75335 8.3229 9.65581C8.29039 9.49326 8.06281 9.42824 8.06281 9.29819C8.06281 9.16815 8.19285 9.0381 8.09532 8.90806C7.99779 8.77801 7.83523 8.71299 7.83523 8.77801C7.80272 8.84303 7.96528 8.84303 7.96528 9.00559C7.96528 9.20066 7.77021 9.36321 7.99779 9.52577C8.12783 9.72084 8.12783 10.0785 8.35541 10.0785C8.45294 10.0785 8.55048 10.0459 8.58299 9.94841" fill="#75A843"/>
<path d="M9.07065 9.78589C9.00563 9.65584 9.07065 9.46077 8.9406 9.36324C8.77805 9.23319 8.45294 9.49329 8.42043 9.16817C8.42043 9.10315 8.77805 8.71302 8.84307 8.6805C8.94061 8.55046 8.90809 8.32288 8.81056 8.25786C8.68052 8.19284 8.648 8.25786 8.55047 8.3879C8.58298 8.42041 8.71303 8.48544 8.71303 8.51795C8.61549 8.74553 8.32289 8.77804 8.25787 9.00562C8.19285 9.16817 8.22536 9.42826 8.38791 9.5258C8.48545 9.59082 8.55047 9.59082 8.648 9.59082C8.9406 9.55831 8.77805 9.62333 8.81056 9.68835C8.81056 9.75337 8.90809 9.98095 9.07065 9.78589M8.09531 8.19284C8.09531 8.3879 8.29038 8.35539 8.42043 8.32288C8.42043 8.25786 8.42043 8.19284 8.45294 8.12781C8.38791 8.16033 8.29038 8.16033 8.25787 8.12781C8.16034 8.06279 8.48545 7.93275 8.45294 7.93275C8.45294 7.93275 8.12782 8.0953 8.25787 7.90024C8.29038 7.83521 8.3554 7.77019 8.38791 7.70517C8.42043 7.64015 8.29038 7.70517 8.29038 7.70517C8.25787 7.70517 8.22536 7.70517 8.19285 7.73768C7.99778 7.90024 8.0628 7.99777 8.09531 8.19284" fill="#75A843"/>
<path d="M11.5415 8.19282C11.3789 7.96525 10.7612 7.21749 9.88341 7.15247C9.78587 7.15247 9.52578 7.25 9.42825 7.28251C9.13565 7.47758 9.75336 7.64013 9.78587 7.77018C9.78587 7.8352 9.81838 7.86771 9.81838 7.93273C9.72085 7.77018 9.62332 7.67265 9.59081 7.60762C9.42825 7.67265 9.16816 7.57511 9.13565 7.41256C9.10314 7.47758 9.10314 7.51009 9.03811 7.57511C9.03811 7.47758 9.0056 7.47758 8.97309 7.41256C8.97309 7.51009 8.97309 7.64013 8.87556 7.67265C8.90807 7.60762 8.87556 7.5426 8.84305 7.47758C8.84305 7.57511 8.84305 7.64013 8.77803 7.70516C8.81054 7.64013 8.74551 7.60762 8.74551 7.5426C8.713 7.80269 8.35538 7.90022 8.713 7.99776C8.84305 8.03027 8.90807 7.99776 9.03811 8.06278C9.07063 8.09529 9.13565 8.16031 9.13565 8.1278C9.13565 8.16031 9.0056 8.29036 9.10314 8.32287C9.07063 8.35538 8.97309 8.55045 8.97309 8.55045C9.07063 8.55045 9.0056 8.61547 8.94058 8.68049C8.84305 8.84305 8.94058 9.0056 8.97309 9.20067C8.97309 9.13565 9.07063 9.23318 9.07063 9.33072C9.07063 9.46076 9.20067 9.52578 9.23318 9.62332C9.07063 9.46076 9.03812 9.62332 9.23318 9.72085C9.07063 9.72085 9.03811 9.81839 9.20067 9.88341C8.81054 9.88341 9.13565 10.046 9.20067 10.0785C9.46076 10.1435 9.65583 9.94843 9.65583 9.91592C9.65583 9.91592 10.176 10.4361 10.2085 10.4361C10.241 10.4361 10.5011 10.3061 10.5661 10.3711C10.6312 10.4686 10.6962 10.3711 10.7612 10.4036C10.8262 10.4686 11.0863 10.4036 11.1513 10.3711C11.1839 10.3711 11.509 10.3061 11.4439 10.241C11.2814 10.111 11.0863 9.98094 10.9238 9.8509C10.7612 9.72085 10.5987 9.62332 10.4686 9.49327C10.4036 9.42825 10.4036 9.29821 10.3711 9.20067C10.6637 9.49327 10.9563 9.65583 10.9238 9.10314C11.1188 9.26569 11.509 10.176 11.5415 10.176C11.639 10.176 11.5415 9.20067 11.5415 9.10314C11.6715 9.23318 11.6715 10.3061 11.704 10.3061C11.8666 10.3386 12.0942 8.90807 11.5415 8.19282" fill="#89664C"/>
<path d="M9.20066 9.8509C9.16815 9.8509 9.00559 9.62332 9.00559 9.59081C9.10313 9.98094 8.71299 9.75336 8.81052 9.59081C8.68048 9.5583 8.35537 9.75336 8.48541 9.94843C8.42039 10.0785 8.94057 9.98094 8.97308 9.91592C9.10313 10.2085 9.42824 9.88341 9.20066 9.8509M10.7287 10.8262C10.8912 10.5987 10.2085 10.5336 10.2735 10.2735C10.176 10.3386 10.046 10.5661 9.91591 10.5011C9.85088 10.4686 9.59079 10.6312 9.72084 10.7287C9.72084 10.5987 9.78586 10.6962 9.88339 10.6637C9.85088 10.7612 9.75335 10.8587 9.91591 10.9238C9.85088 10.7287 10.111 10.8262 10.0785 10.7287C10.0134 10.6637 10.306 10.6637 10.3386 10.6637C10.4361 10.6637 10.7612 10.7612 10.6312 10.8587C10.6312 10.8587 10.6962 10.8587 10.7287 10.8262M8.55043 8.03027C8.51792 8.09529 8.38788 8.19282 8.38788 8.29036C8.38788 8.35538 8.55043 8.51794 8.61546 8.4204C8.42039 8.29036 8.64797 8.19282 8.7455 8.19282C8.77801 8.19282 8.77801 8.25785 8.77801 8.25785C8.81052 8.29036 9.07061 8.19282 9.0381 8.1278C9.07061 7.99776 8.64797 7.99776 8.55043 8.03027Z" fill="#FFCE31"/>
</svg>
